<svg version="1.1" xmlns="http://www.w3.org/2000/svg" xmlns:xlink="http://www.w3.org/1999/xlink" width="819"
  height="200" viewBox="0,300,819,200">
  <g transform="translate(-180.36686,-83.10809) scale(1.3141,1.3141)">
    <g fill="none" fill-rule="nonzero" stroke="none" stroke-width="1" stroke-linecap="round" stroke-linejoin="miter"
      stroke-miterlimit="10" stroke-dasharray="" stroke-dashoffset="0" font-family="none" font-weight="none"
      font-size="none" text-anchor="none" style="mix-blend-mode: normal">
      <g>
        <path d="M210.34472,286.5c74.61604,-14.65544 148.58904,28.0529 173.20508,100" fill="#f472b6" stroke="#000000" />
        <path d="M210.34472,286.5c70.79325,2.38249 135.74516,39.88249 173.20508,100" fill="#d9f99d" stroke="#000000" />
        <path d="M210.34472,286.5c37.45992,60.11751 102.41183,97.61751 173.20508,100" fill="#d9f99d" stroke="#000000" />
        <path d="M210.34472,286.5l173.20508,100" fill="none" stroke="#d9f99d" />
        <path
          d="M261.64178,294.5715c-0.87215,21.61805 10.31847,41.936 29.05547,52.75382c18.73701,10.81782 41.92818,10.3502 60.21389,-1.21413"
          fill="#86efac" stroke="#000000" />
        <path d="M261.64178,294.5715c33.53368,9.59716 64.19113,27.29725 89.26936,51.53969" fill="#86efac"
          stroke="#000000" />
      </g>
      <g>
        <path d="M529.22111,249.89746c71.9471,24.61604 114.65544,98.58904 100,173.20508" fill="#f472b6"
          stroke="#000000" />
        <path d="M529.22111,249.89746c60.11751,37.45992 97.61751,102.41183 100,173.20508" fill="#d9f99d"
          stroke="#000000" />
        <path d="M529.22111,249.89746c2.38249,70.79325 39.88249,135.74516 100,173.20508" fill="#d9f99d"
          stroke="#000000" />
        <path d="M529.22111,249.89746l100,173.20508" fill="none" stroke="#d9f99d" />
        <path
          d="M569.60992,282.53611c-11.56433,18.2857 -12.03195,41.47688 -1.21413,60.21389c10.81782,18.73701 31.13577,29.92763 52.75382,29.05547"
          fill="#86efac" stroke="#000000" />
        <path d="M569.60992,282.53611c24.24244,25.07823 41.94253,55.73568 51.53969,89.26936" fill="#86efac"
          stroke="#000000" />
      </g>
      <g>
        <path d="M246.0167,236.5c50,57.29167 50,142.70833 0,200" fill="#f472b6" stroke="#000000" />
        <path d="M246.0167,236.5c33.33333,62.5 33.33333,137.5 0,200" fill="#d9f99d" stroke="#000000" />
        <path d="M246.0167,236.5c-33.33333,62.5 -33.33333,137.5 0,200" fill="#d9f99d" stroke="#000000" />
        <path d="M246.0167,236.5v200" fill="none" stroke="#d9f99d" />
        <path
          d="M264.67511,284.96031c-19.15785,10.05372 -31.15841,29.90406 -31.15841,51.53969c0,21.63563 12.00056,41.48597 31.15841,51.53969"
          fill="#86efac" stroke="#000000" />
        <path d="M264.67511,284.96031c8.45545,33.8396 8.45545,69.23978 0,103.07938" fill="#86efac" stroke="#000000" />
      </g>
      <g>
        <path d="M729.91588,249.89746c14.65544,74.61604 -28.0529,148.58904 -100,173.20508" fill="#f472b6"
          stroke="#000000" />
        <path d="M729.91588,249.89746c-2.38249,70.79325 -39.88249,135.74516 -100,173.20508" fill="#d9f99d"
          stroke="#000000" />
        <path d="M729.91588,249.89746c-60.11751,37.45992 -97.61751,102.41183 -100,173.20508" fill="#d9f99d"
          stroke="#000000" />
        <path d="M729.91588,249.89746l-100,173.20508" fill="none" stroke="#d9f99d" />
        <path
          d="M721.84438,301.19453c-21.61805,-0.87215 -41.936,10.31847 -52.75382,29.05547c-10.81782,18.73701 -10.3502,41.92818 1.21413,60.21389"
          fill="#86efac" stroke="#000000" />
        <path d="M721.84438,301.19453c-9.59716,33.53368 -27.29725,64.19113 -51.53969,89.26936" fill="#86efac"
          stroke="#000000" />
      </g>
      <g>
        <path d="M529.38477,286.5c-24.61604,71.9471 -98.58904,114.65544 -173.20508,100" fill="#f472b6"
          stroke="#000000" />
        <path d="M529.38477,286.5c-37.45992,60.11751 -102.41183,97.61751 -173.20508,100" fill="#d9f99d"
          stroke="#000000" />
        <path d="M529.38477,286.5c-70.79325,2.38249 -135.74516,39.88249 -173.20508,100" fill="#d9f99d"
          stroke="#000000" />
        <path d="M529.38477,286.5l-173.20508,100" fill="none" stroke="#d9f99d" />
        <path
          d="M496.74611,326.88881c-18.2857,-11.56433 -41.47688,-12.03195 -60.21389,-1.21413c-18.73701,10.81782 -29.92763,31.13577 -29.05547,52.75382"
          fill="#86efac" stroke="#000000" />
        <path d="M496.74611,326.88881c-25.07823,24.24244 -55.73568,41.94253 -89.26936,51.53969" fill="#86efac"
          stroke="#000000" />
      </g>
      <g>
        <path d="M676.9337,336.5c-57.29167,50 -142.70833,50 -200,0" fill="#f472b6" stroke="#000000" />
        <path d="M676.9337,336.5c-62.5,33.33333 -137.5,33.33333 -200,0" fill="#d9f99d" stroke="#000000" />
        <path d="M676.9337,336.5c-62.5,-33.33333 -137.5,-33.33333 -200,0" fill="#d9f99d" stroke="#000000" />
        <path d="M676.9337,336.5h-200" fill="none" stroke="#d9f99d" />
        <path
          d="M628.47338,355.15841c-10.05372,-19.15785 -29.90406,-31.15841 -51.53969,-31.15841c-21.63563,0 -41.48597,12.00056 -51.53969,31.15841"
          fill="#86efac" stroke="#000000" />
        <path d="M628.47338,355.15841c-33.8396,8.45545 -69.23978,8.45545 -103.07938,0" fill="#86efac"
          stroke="#000000" />
      </g>
      <g>
        <path d="M339.64746,386.5c-74.61604,14.65544 -148.58904,-28.0529 -173.20508,-100" fill="#f472b6"
          stroke="#000000" />
        <path d="M339.64746,386.5c-70.79325,-2.38249 -135.74516,-39.88249 -173.20508,-100" fill="#d9f99d"
          stroke="#000000" />
        <path d="M339.64746,386.5c-37.45992,-60.11751 -102.41183,-97.61751 -173.20508,-100" fill="#d9f99d"
          stroke="#000000" />
        <path d="M339.64746,386.5l-173.20508,-100" fill="none" stroke="#d9f99d" />
        <path
          d="M288.3504,378.4285c0.87215,-21.61805 -10.31847,-41.936 -29.05547,-52.75382c-18.73701,-10.81782 -41.92818,-10.3502 -60.21389,1.21413"
          fill="#86efac" stroke="#000000" />
        <path d="M288.3504,378.4285c-33.53368,-9.59716 -64.19113,-27.29725 -89.26936,-51.53969" fill="#86efac"
          stroke="#000000" />
      </g>
      <g>
        <path d="M539.4398,423.10254c-71.9471,-24.61604 -114.65544,-98.58904 -100,-173.20508" fill="#f472b6"
          stroke="#000000" />
        <path d="M539.4398,423.10254c-60.11751,-37.45992 -97.61751,-102.41183 -100,-173.20508" fill="#d9f99d"
          stroke="#000000" />
        <path d="M539.4398,423.10254c-2.38249,-70.79325 -39.88249,-135.74516 -100,-173.20508" fill="#d9f99d"
          stroke="#000000" />
        <path d="M539.4398,423.10254l-100,-173.20508" fill="none" stroke="#d9f99d" />
        <path
          d="M499.05098,390.46389c11.56433,-18.2857 12.03195,-41.47688 1.21413,-60.21389c-10.81782,-18.73701 -31.13577,-29.92763 -52.75382,-29.05547"
          fill="#86efac" stroke="#000000" />
        <path d="M499.05098,390.46389c-24.24244,-25.07823 -41.94253,-55.73568 -51.53969,-89.26936" fill="#86efac"
          stroke="#000000" />
      </g>
    </g>
  </g>
</svg>