<svg version="1.1" xmlns="http://www.w3.org/2000/svg" xmlns:xlink="http://www.w3.org/1999/xlink" width="819"
  height="673" viewBox="0,0,819,673">
  <g transform="translate(-35.24303,-60.27854) scale(1.04712,1.04712)">
    <g fill="none" fill-rule="nonzero" stroke="#000000" stroke-width="1" stroke-linecap="round" stroke-linejoin="miter"
      stroke-miterlimit="10" stroke-dasharray="" stroke-dashoffset="0" font-family="none" font-weight="none"
      font-size="none" text-anchor="none" style="mix-blend-mode: normal">
      <g>
        <path d="M515.82137,443.46353c120.78945,-5.55278 233.10551,61.95179 284.88379,171.22179" fill="#f472b6" />
        <path d="M515.82137,443.46353c114.10836,16.48175 216.78287,78.19152 284.88379,171.22179" fill="#d9f99d" />
        <path d="M515.82137,443.46353c68.10092,93.03027 170.77543,154.74004 284.88379,171.22179" fill="#d9f99d" />
        <path
          d="M643.91042,520.44803c9.52845,-15.85372 23.67878,-24.84353 31.60564,-20.0793c7.92686,4.76423 6.62851,21.47837 -2.89994,37.33209c-9.52845,15.85372 -23.67878,24.84353 -31.60564,20.0793c-7.92686,-4.76423 -6.62851,-21.47837 2.89994,-37.33209z"
          fill="#86efac" />
      </g>
      <a href="/projects">
        <g>
          <path id="eye2"
            d="M130.74157,512.06952c27.67688,-27.57624 67.26319,-39.5692 105.59081,-31.9895c38.32762,7.57969 70.36915,33.73782 85.46619,69.77305"
            fill="#f472b6" />
          <path d="M130.74157,512.06952c64.60006,-34.22128 144.3455,-18.45078 191.057,37.78355" fill="#d9f99d" />
          <path d="M130.74157,512.06952c46.71151,56.23432 126.45694,72.00483 191.057,37.78355" fill="#d9f99d" />
          <path
            d="M209.30965,527.60719c3.70484,-18.73397 14.30165,-32.41917 23.66863,-30.56675c9.36698,1.85242 13.95706,18.54099 10.25222,37.27495c-3.70484,18.73397 -14.30165,32.41917 -23.66863,30.56675c-9.36698,-1.85242 -13.95706,-18.54099 -10.25222,-37.27495z"
            fill="#86efac" />
        </g>
      </a>
      <g>
        <path d="M708.86809,382.3448c-131.74766,0.94306 -247.30872,-87.70652 -280.52928,-215.20057" fill="#f472b6" />
        <path d="M708.86809,382.3448c-121.45184,-25.16203 -224.76217,-104.4138 -280.52928,-215.20057" fill="#d9f99d" />
        <path d="M708.86809,382.3448c-55.7671,-110.78676 -159.07744,-190.03854 -280.52928,-215.20057" fill="#d9f99d" />
        <path
          d="M584.65809,287.0604c-13.60375,17.73346 -31.81968,26.59526 -40.68641,19.79339c-8.86673,-6.80188 -5.02662,-26.6917 8.57714,-44.42516c13.60375,-17.73346 31.81968,-26.59526 40.68641,-19.79339c8.86673,6.80188 5.02662,26.6917 -8.57714,44.42516z"
          fill="#86efac" />
      </g>
      <g>
        <path
          d="M321.03917,384.86047c47.2599,-31.01579 105.69142,-39.89196 160.0299,-24.30968c54.33848,15.58227 99.1863,54.07515 122.82742,105.42274"
          fill="#f472b6" />
        <path d="M321.03917,384.86047c102.00514,-33.14901 213.92105,-1.05564 282.85732,81.11306" fill="#d9f99d" />
        <path d="M321.03917,384.86047c68.93627,82.1687 180.85218,114.26206 282.85732,81.11306" fill="#d9f99d" />
        <path
          d="M440.84576,419.21659c6.84879,-23.88308 22.08136,-40.46812 34.0229,-37.04373c11.94154,3.42439 16.07003,25.56147 9.22124,49.44455c-6.84879,23.88308 -22.08136,40.46812 -34.0229,37.04373c-11.94154,-3.42439 -16.07003,-25.56147 -9.22124,-49.44455z"
          fill="#86efac" />
      </g>
      <a href="/poems">
        <g>
          <path id="eye4"
            d="M631.95807,475.90161c17.56612,-25.26992 50.19246,-35.16049 78.83324,-23.89803c28.64078,11.26245 45.7915,40.72691 41.44033,71.19337"
            fill="#f472b6" />
          <path
            d="M631.95807,475.90161c21.39134,-14.49374 48.55439,-17.50538 72.60109,-8.04947c24.0467,9.45591 41.88293,30.16268 47.67248,55.3448"
            fill="#d9f99d" />
          <path
            d="M631.95807,475.90161c5.78955,25.18212 23.62578,45.88889 47.67248,55.3448c24.0467,9.45591 51.20975,6.44428 72.60109,-8.04947"
            fill="#d9f99d" />
          <path
            d="M676.24629,493.31712c6.88385,-17.50584 19.55995,-28.9069 28.31287,-25.46498c8.75292,3.44192 10.26811,20.42344 3.38426,37.92929c-6.88385,17.50584 -19.55995,28.9069 -28.31287,25.46498c-8.75292,-3.44192 -10.26811,-20.42344 -3.38426,-37.92929z"
            fill="#86efac" />
        </g>
      </a>
      <a href="/github">
        <g>
          <path id="eye3"
            d="M580.04671,222.18947c-14.24761,43.71049 -45.78558,79.67263 -87.26245,99.50369c-41.47687,19.83106 -89.26859,21.79829 -132.23498,5.44315"
            fill="#f472b6" />
          <path d="M580.04671,222.18947c-47.20654,73.93186 -132.3153,114.62434 -219.49743,104.94683" fill="#d9f99d" />
          <path d="M580.04671,222.18947c-87.18213,-9.67751 -172.29089,31.01498 -219.49743,104.94683" fill="#d9f99d" />
          <path
            d="M485.97475,267.16747c8.27921,17.31607 7.97212,34.70933 -0.68591,38.84893c-8.65803,4.13961 -22.38839,-6.54202 -30.6676,-23.85809c-8.27921,-17.31607 -7.97212,-34.70933 0.68591,-38.84893c8.65803,-4.13961 22.38839,6.54202 30.6676,23.85809z"
            fill="#86efac" />
        </g>
      </a>
      <g>
        <path
          d="M63.0962,231.8229c54.88776,-21.20471 116.07398,-18.9465 169.24933,6.24651c53.17536,25.19301 93.67655,71.11148 112.03177,127.01669"
          fill="#f472b6" />
        <path d="M63.0962,231.8229c111.50838,-12.89409 220.63278,38.80603 281.2811,133.2632" fill="#d9f99d" />
        <path d="M63.0962,231.8229c60.64833,94.45717 169.77272,146.15729 281.2811,133.2632" fill="#d9f99d" />
        <path
          d="M183.60839,288.91824c10.53346,-22.23318 28.0843,-35.9872 39.20088,-30.72046c11.11659,5.26673 11.5893,27.55981 1.05584,49.79299c-10.53346,22.23318 -28.0843,35.9872 -39.20088,30.72046c-11.11659,-5.26673 -11.5893,-27.55981 -1.05584,-49.79299z"
          fill="#86efac" />
      </g>
      <a href="/writings">
        <g>
          <path id="eye1" d="M237.23019,334.28994c125.09779,29.82674 212.20979,143.19307 208.81796,271.75273" fill="#f472b6" />
          <path d="M237.23019,334.28994c108.54563,52.61058 185.93207,153.3202 208.81796,271.75273" fill="#d9f99d" />
          <path d="M237.23019,334.28994c22.88589,118.43253 100.27232,219.14214 208.81796,271.75273" fill="#d9f99d" />
          <path
            d="M329.29755,454.10511c17.74071,-13.63217 37.64793,-17.49238 44.46402,-8.62203c6.81609,8.87036 -2.04008,27.11226 -19.78079,40.74443c-17.74071,13.63217 -37.64793,17.49238 -44.46402,8.62203c-6.81609,-8.87036 2.04008,-27.11226 19.78079,-40.74443z"
            fill="#86efac" />
        </g>
      </a>
    </g>
    <a href="/writings">
      <text font-size="48">
        <textPath href="#eye1">
          writings
        </textPath>
      </text>
    </a>
    <a href="/projects">
      <text font-size="48">
        <textPath href="#eye2">
          projects
        </textPath>
      </text>
    </a>
    <a href="/github">
      <text font-size="48">
        <textPath href="#eye3">
          github
        </textPath>
      </text>
    </a>
    <a href="/poems">
      <text font-size="48">
        <textPath href="#eye4">
          poems
        </textPath>
      </text>
    </a>
  </g>
</svg>